<?xml version="1.0" encoding="utf-8"?>
<!-- Generator: Adobe Illustrator 24.1.0, SVG Export Plug-In . SVG Version: 6.00 Build 0)  -->
<svg version="1.1" id="Warstwa_1" xmlns="http://www.w3.org/2000/svg" xmlns:xlink="http://www.w3.org/1999/xlink" x="0px" y="0px"
	 viewBox="0 0 600 416.4" style="enable-background:new 0 0 600 416.4;" xml:space="preserve">
<style type="text/css">
	.st0{fill:#FFFFFF;}
	.st1{fill:#020203;}
	.st2{fill:url(#SVGID_1_);}
	.st3{fill:#20A2C1;}
</style>
<g>
	<g>
		<path class="st0" d="M43.1,306.5v36.1c0,1.4-1.2,2.6-2.6,2.6c-1.4,0-2.6-1.2-2.6-2.6v-15.8H15.2v15.8c0,1.4-1.2,2.6-2.6,2.6
			c-1.5,0-2.6-1.2-2.6-2.6v-36.1c0-1.5,1.2-2.6,2.6-2.6c1.5,0,2.6,1.2,2.6,2.6v15h22.7v-15c0-1.5,1.2-2.6,2.6-2.6
			C41.9,303.9,43.1,305.1,43.1,306.5z"/>
		<path class="st0" d="M68.9,346c-3.8,0-7.2-0.8-9.8-2.4c-2.3-1.3-4.1-3.2-5.4-5.5c-2.2-4-2.2-8.2-2.2-9.5v-21.9
			c0-1.4,1.2-2.6,2.6-2.6c1.5,0,2.6,1.2,2.6,2.6v21.9c0,1.1,0,4.2,1.5,7c0.8,1.5,1.9,2.7,3.4,3.5c1.8,1.1,4.3,1.6,7.2,1.6
			c2.9,0,5.4-0.6,7.2-1.6c1.4-0.8,2.6-2,3.4-3.5c1.5-2.8,1.5-6,1.5-7v-21.9c0-1.4,1.2-2.6,2.6-2.6c1.5,0,2.6,1.2,2.6,2.6v21.9
			c0,1.4,0,5.6-2.2,9.5C82.2,341.7,78,346,68.9,346z"/>
		<path class="st0" d="M132.7,345.1c-1.4,0-2.6-1.2-2.6-2.6v-28l-12.9,17.7c-0.5,0.7-1.3,1.1-2.1,1.1s-1.6-0.4-2.2-1.1l-12.9-17.7
			v28c0,1.4-1.2,2.6-2.6,2.6c-1.4,0-2.6-1.2-2.6-2.6v-36.1c0-1.2,0.7-2.2,1.8-2.5c1.1-0.4,2.3,0.1,2.9,0.9l15.6,21.4l15.6-21.4
			c0.7-0.9,1.8-1.3,2.9-0.9c1.1,0.4,1.8,1.4,1.8,2.5v36.1C135.3,343.9,134.2,345.1,132.7,345.1z"/>
		<path class="st0" d="M146.1,345.3c-0.5,0-1.1-0.2-1.6-0.5c-1-0.7-1.4-2.1-0.8-3.3l17.5-36.1c0.5-0.9,1.4-1.5,2.4-1.5
			c1,0,1.9,0.6,2.4,1.5l17.6,36c0.6,1.3,0.1,2.8-1.2,3.5c-1.3,0.7-2.9,0.1-3.5-1.2l-4.1-8.5c-2.7-0.8-5.6-0.9-8.7-0.3
			c-2.9,0.5-5.9,1.6-9,3.2c-5.4,2.8-9.1,6.3-9.2,6.4C147.4,345.1,146.8,345.3,146.1,345.3z M163.6,312.6l-10.6,21.8
			c0.5-0.3,0.9-0.5,1.5-0.8c3.5-1.9,7.1-3.2,10.5-3.8c2.4-0.4,4.6-0.6,6.8-0.4L163.6,312.6z"/>
		<path class="st0" d="M222.7,345.5c-0.8,0-1.5-0.4-2.1-0.9L195.2,314v28.8c0,1.5-1.2,2.6-2.6,2.6c-1.5,0-2.6-1.2-2.6-2.6v-36.1
			c0-1.1,0.7-2.1,1.7-2.5c1.1-0.4,2.2-0.1,2.9,0.8l25.5,30.5v-28.8c0-1.5,1.2-2.6,2.6-2.6c1.4,0,2.6,1.2,2.6,2.6v36.1
			c0,1.1-0.7,2.1-1.7,2.5C223.2,345.5,222.9,345.5,222.7,345.5z"/>
		<path class="st0" d="M279,346c-2.9,0-5.8-0.6-8.5-1.7c-2.5-1.1-4.8-2.6-6.8-4.6c-2-1.9-3.5-4.3-4.6-6.8c-1.2-2.6-1.7-5.4-1.7-8.3
			c0-2.9,0.6-5.7,1.7-8.3c1.1-2.5,2.7-4.8,4.7-6.8c2-2,4.4-3.5,6.9-4.6c2.7-1.1,5.5-1.7,8.4-1.7c4.7,0,9.2,1.5,12.8,4.3
			c1.2,0.9,1.4,2.5,0.5,3.7c-0.9,1.2-2.6,1.4-3.7,0.5c-2.8-2.2-6.1-3.3-9.7-3.3c-2.2,0-4.4,0.4-6.4,1.3c-1.9,0.8-3.7,2-5.3,3.5
			c-1.5,1.5-2.7,3.2-3.5,5.2c-0.8,1.9-1.3,4-1.3,6.2s0.4,4.2,1.3,6.2c0.8,1.9,2,3.7,3.5,5.2c3.1,3.1,7.2,4.8,11.6,4.8
			c1.9,0,3.8-0.4,5.6-1c1.7-0.6,3.3-1.6,4.7-2.7c1.1-0.9,2.7-0.8,3.7,0.3c0.9,1.1,0.8,2.8-0.3,3.7c-1.9,1.6-4,2.8-6.3,3.6
			C284,345.6,281.5,346,279,346z"/>
		<path class="st0" d="M323.4,346.2c-2.9,0-5.7-0.6-8.4-1.7c-2.6-1.1-4.9-2.6-6.9-4.6c-1.9-2-3.5-4.3-4.6-6.8
			c-1.1-2.6-1.7-5.4-1.7-8.3c0-2.9,0.6-5.7,1.7-8.3c1.1-2.5,2.7-4.8,4.7-6.8c2-2,4.3-3.5,6.9-4.6c2.7-1.1,5.5-1.7,8.5-1.7
			c5.7,0,11.1,2.3,15.1,6.4c1.9,1.9,3.4,4.3,4.5,6.8c1.1,2.6,1.6,5.4,1.6,8.3c0,2.9-0.5,5.7-1.6,8.3c-1.1,2.6-2.6,4.9-4.5,6.8
			C334.5,344,329.2,346.2,323.4,346.2z M323.5,308.6c-2.2,0-4.4,0.4-6.4,1.3c-2,0.8-3.7,2-5.3,3.5c-1.5,1.5-2.7,3.2-3.5,5.2
			c-0.9,1.9-1.3,4-1.3,6.2c0,2.2,0.4,4.2,1.3,6.2c0.8,1.9,2,3.7,3.5,5.2c3.1,3.1,7.2,4.8,11.6,4.8c4.4,0,8.4-1.7,11.5-4.8
			c1.5-1.5,2.6-3.2,3.4-5.2c0.8-2,1.2-4.1,1.2-6.3c0-4.3-1.6-8.4-4.6-11.4C331.9,310.3,327.9,308.6,323.5,308.6z"/>
		<path class="st0" d="M378.5,345.3h-22.9c-1.4,0-2.6-1.2-2.6-2.6v-36.1c0-1.5,1.2-2.6,2.6-2.6c1.5,0,2.6,1.2,2.6,2.6v33.5h20.3
			c1.5,0,2.6,1.2,2.6,2.6C381.1,344.2,379.9,345.3,378.5,345.3z"/>
		<path class="st0" d="M410.9,346.2c-2.9,0-5.7-0.6-8.4-1.7c-2.6-1.1-4.9-2.6-6.9-4.6c-1.9-2-3.5-4.3-4.6-6.8
			c-1.1-2.6-1.7-5.4-1.7-8.3c0-2.9,0.6-5.7,1.7-8.3c1.1-2.5,2.7-4.8,4.7-6.8c2-2,4.3-3.5,6.9-4.6c2.7-1.1,5.5-1.7,8.5-1.7
			c5.7,0,11.1,2.3,15.1,6.4c1.9,1.9,3.4,4.3,4.5,6.8c1.1,2.6,1.6,5.4,1.6,8.3c0,2.9-0.5,5.7-1.6,8.3c-1.1,2.6-2.6,4.9-4.5,6.8
			C422,344,416.6,346.2,410.9,346.2z M411,308.6c-2.2,0-4.4,0.4-6.4,1.3c-2,0.8-3.7,2-5.3,3.5c-1.5,1.5-2.7,3.2-3.5,5.2
			c-0.9,1.9-1.3,4-1.3,6.2c0,2.2,0.4,4.2,1.3,6.2c0.8,1.9,2,3.7,3.5,5.2c3.1,3.1,7.2,4.8,11.6,4.8c4.4,0,8.4-1.7,11.5-4.8
			c1.5-1.5,2.6-3.2,3.4-5.2c0.8-2,1.2-4.1,1.2-6.3c0-4.3-1.6-8.4-4.6-11.4C419.4,310.3,415.3,308.6,411,308.6z"/>
		<path class="st0" d="M455.7,346c-11.4,0-14.6-5.4-15-6c-0.7-1.3-0.2-2.9,1.1-3.6c1.3-0.7,2.8-0.2,3.5,1c0.1,0.1,0.6,0.8,2,1.6
			c2.6,1.4,6,1.7,8.4,1.7c3.5,0,6.1-0.7,7.6-2.1c1.2-1.1,1.4-2.4,1.4-3.3c0-1.9-0.6-3.4-1.8-4.6c-1.6-1.6-4.5-2.8-8.5-3.6
			c-2.9-0.6-5.4-1.6-7.4-3c-1.7-1.2-3-2.6-3.9-4.3c-1.5-2.6-1.5-5-1.5-5.6c0-2.8,1.3-5.6,3.6-7.6c1.1-1,2.5-1.8,4-2.4
			c1.6-0.6,3.3-0.8,5.1-0.8c10.3,0,13.3,4.8,13.6,5.4c0.7,1.3,0.3,2.9-1,3.6c-1.3,0.7-2.8,0.3-3.5-0.9c-0.1-0.1-0.6-0.7-1.7-1.4
			c-1.3-0.6-3.5-1.4-7.3-1.4c-2.9,0-4.6,1-5.6,1.9c-1.1,1-1.8,2.4-1.8,3.7v0.1c0,0.2,0,1.5,0.9,3.1c0.6,0.9,1.4,1.7,2.4,2.4
			c1.4,0.9,3.2,1.6,5.3,2.1c5,1,8.7,2.6,11.1,5c2.3,2.2,3.4,5,3.4,8.4c0,2.7-1.1,5.3-3.1,7.2C464.3,344.8,460.6,346,455.7,346z"/>
		<path class="st0" d="M493.6,346c-11.4,0-14.6-5.4-15-6c-0.7-1.3-0.2-2.9,1.1-3.6c1.3-0.7,2.8-0.2,3.5,1c0.1,0.1,0.6,0.8,2,1.6
			c2.6,1.4,6,1.7,8.4,1.7c3.5,0,6.1-0.7,7.6-2.1c1.2-1.1,1.4-2.4,1.4-3.3c0-1.9-0.6-3.4-1.8-4.6c-1.6-1.6-4.5-2.8-8.5-3.6
			c-2.9-0.6-5.4-1.6-7.4-3c-1.7-1.2-3-2.6-3.9-4.3c-1.5-2.6-1.5-5-1.5-5.6c0-2.8,1.3-5.6,3.6-7.6c1.1-1,2.5-1.8,4-2.4
			c1.6-0.6,3.3-0.8,5.1-0.8c10.3,0,13.3,4.8,13.6,5.4c0.7,1.3,0.3,2.9-1,3.6c-1.3,0.7-2.8,0.3-3.5-0.9c-0.1-0.1-0.6-0.7-1.7-1.4
			c-1.3-0.6-3.5-1.4-7.3-1.4c-2.9,0-4.6,1-5.6,1.9c-1.1,1-1.8,2.4-1.8,3.7v0.1c0,0.2,0,1.5,0.9,3.1c0.6,0.9,1.4,1.7,2.4,2.4
			c1.4,0.9,3.2,1.6,5.3,2.1c5,1,8.7,2.6,11.1,5c2.3,2.2,3.4,5,3.4,8.4c0,2.7-1.1,5.3-3.1,7.2C502.3,344.8,498.5,346,493.6,346z"/>
		<path class="st0" d="M533.7,346c-3.8,0-7.2-0.8-9.8-2.4c-2.3-1.3-4.1-3.2-5.4-5.5c-2.2-4-2.2-8.2-2.2-9.5v-21.9
			c0-1.4,1.2-2.6,2.6-2.6c1.5,0,2.6,1.2,2.6,2.6v21.9c0,1.1,0,4.2,1.5,7c0.8,1.5,1.9,2.7,3.4,3.5c1.8,1.1,4.3,1.6,7.2,1.6
			c2.9,0,5.4-0.6,7.2-1.6c1.4-0.8,2.6-2,3.4-3.5c1.5-2.8,1.5-6,1.5-7v-21.9c0-1.4,1.2-2.6,2.6-2.6c1.5,0,2.6,1.2,2.6,2.6v21.9
			c0,1.4,0,5.6-2.2,9.5C547,341.7,542.8,346,533.7,346z"/>
		<path class="st0" d="M574.8,346c-11.4,0-14.6-5.4-15-6c-0.7-1.3-0.2-2.9,1.1-3.6c1.3-0.7,2.8-0.2,3.5,1c0.1,0.1,0.6,0.8,2,1.6
			c2.6,1.4,6,1.7,8.4,1.7c3.5,0,6.1-0.7,7.6-2.1c1.2-1.1,1.4-2.4,1.4-3.3c0-1.9-0.6-3.4-1.8-4.6c-1.6-1.6-4.5-2.8-8.5-3.6
			c-2.9-0.6-5.4-1.6-7.4-3c-1.7-1.2-3-2.6-3.9-4.3c-1.5-2.6-1.5-5-1.5-5.6c0-2.8,1.3-5.6,3.6-7.6c1.1-1,2.5-1.8,4-2.4
			c1.6-0.6,3.3-0.8,5.1-0.8c10.3,0,13.3,4.8,13.6,5.4c0.7,1.3,0.3,2.9-1,3.6c-1.3,0.7-2.8,0.3-3.5-0.9c-0.1-0.1-0.6-0.7-1.7-1.4
			c-1.3-0.6-3.5-1.4-7.3-1.4c-2.9,0-4.6,1-5.6,1.9c-1.1,1-1.8,2.4-1.8,3.7v0.1c0,0.2,0,1.5,0.9,3.1c0.6,0.9,1.4,1.7,2.4,2.4
			c1.4,0.9,3.2,1.6,5.3,2.1c5,1,8.7,2.6,11.1,5c2.3,2.2,3.4,5,3.4,8.4c0,2.7-1.1,5.3-3.1,7.2C583.5,344.8,579.7,346,574.8,346z"/>
	</g>
	<g>
		<path class="st0" d="M142.1,371.5c0,1.2-0.9,2.1-2.1,2.1h-17.9v10.7h15.3c1.1,0,2.1,1,2.1,2.1c0,1.2-1,2.1-2.1,2.1h-15.3v12.2
			c0,1.1-0.9,2.1-2.1,2.1c-1.2,0-2.1-1-2.1-2.1v-29.2c0-1.1,0.9-2.1,2.1-2.1h20C141.2,369.4,142.1,370.3,142.1,371.5z"/>
		<path class="st0" d="M170.5,403.5c-2.3,0-4.6-0.5-6.8-1.4c-2.1-0.9-4-2.1-5.6-3.7c-1.6-1.6-2.9-3.4-3.7-5.5
			c-0.9-2.1-1.4-4.4-1.4-6.7c0-2.3,0.5-4.6,1.4-6.7c0.9-2,2.2-3.9,3.8-5.5c1.6-1.6,3.5-2.9,5.6-3.7c2.2-0.9,4.5-1.4,6.8-1.4
			c4.6,0,9,1.8,12.2,5.1c1.6,1.6,2.8,3.4,3.6,5.5c0.9,2.1,1.3,4.4,1.3,6.7c0,2.3-0.4,4.6-1.3,6.7c-0.9,2.1-2.1,4-3.7,5.5
			C179.5,401.7,175.2,403.5,170.5,403.5z M170.6,373.1c-1.8,0-3.5,0.3-5.2,1c-1.6,0.7-3,1.6-4.3,2.8c-1.2,1.2-2.2,2.6-2.9,4.2
			c-0.7,1.6-1.1,3.3-1.1,5c0,1.7,0.3,3.4,1,5c0.7,1.6,1.6,3,2.9,4.2c2.5,2.5,5.8,3.9,9.4,3.9c3.5,0,6.8-1.4,9.3-3.9
			c1.2-1.2,2.1-2.6,2.8-4.2c0.6-1.6,1-3.3,1-5.1c0-3.5-1.3-6.8-3.7-9.2C177.4,374.4,174.1,373.1,170.6,373.1z"/>
		<path class="st0" d="M212.7,403.3c-3.1,0-5.8-0.6-8-1.9c-1.9-1.1-3.3-2.6-4.4-4.5c-1.7-3.2-1.7-6.6-1.7-7.7v-17.7
			c0-1.1,1-2.1,2.1-2.1c1.2,0,2.1,1,2.1,2.1v17.7c0,0.9,0,3.4,1.2,5.7c0.7,1.2,1.6,2.2,2.8,2.9c1.5,0.9,3.4,1.3,5.8,1.3
			c2.4,0,4.3-0.5,5.8-1.3c1.1-0.7,2.1-1.6,2.7-2.8c1.2-2.3,1.2-4.8,1.2-5.7v-17.7c0-1.1,1-2.1,2.1-2.1c1.2,0,2.1,1,2.1,2.1v17.7
			c0,1.1,0,4.5-1.7,7.7C223.4,399.8,220,403.3,212.7,403.3z"/>
		<path class="st0" d="M264.2,402.9c-0.6,0-1.2-0.3-1.7-0.8L242,377.4v23.3c0,1.2-0.9,2.1-2.1,2.1c-1.2,0-2.1-0.9-2.1-2.1v-29.2
			c0-0.9,0.6-1.7,1.4-2c0.9-0.3,1.8,0,2.3,0.6l20.6,24.7v-23.3c0-1.2,0.9-2.1,2.1-2.1c1.1,0,2.1,0.9,2.1,2.1v29.2
			c0,0.9-0.6,1.7-1.4,2C264.7,402.8,264.4,402.9,264.2,402.9z"/>
		<path class="st0" d="M290,402.8L290,402.8h-10.5c-1.2,0-2.1-1-2.1-2.1v-29.2c0-0.6,0.2-1.1,0.6-1.5c0.4-0.4,0.9-0.6,1.5-0.6h10.5
			c2.3,0,4.6,0.5,6.7,1.3c2,0.9,3.9,2.1,5.5,3.6c1.6,1.5,2.8,3.3,3.7,5.3c0.9,2.1,1.4,4.3,1.4,6.5c0,2.2-0.5,4.4-1.4,6.5
			c-0.9,2-2.1,3.8-3.7,5.3c-1.6,1.5-3.4,2.7-5.5,3.6C294.5,402.3,292.3,402.8,290,402.8z M281.6,398.5h8.4c1.7,0,3.4-0.4,5-1
			c1.6-0.6,3-1.5,4.2-2.7c1.2-1.1,2.1-2.5,2.8-4c0.7-1.5,1-3.1,1-4.7c0-1.7-0.3-3.3-1-4.8c-0.6-1.5-1.6-2.8-2.8-4
			c-2.5-2.4-5.7-3.7-9.2-3.7h-8.4V398.5z"/>
		<path class="st0" d="M318.1,402.8c-0.4,0-0.9-0.1-1.3-0.4c-0.8-0.6-1.1-1.7-0.6-2.6l14.2-29.2c0.4-0.7,1.1-1.2,1.9-1.2
			c0.8,0,1.6,0.5,1.9,1.2l14.3,29.1c0.5,1,0.1,2.3-1,2.8c-1.1,0.6-2.3,0.1-2.9-0.9l-3.3-6.8c-2.2-0.6-4.6-0.7-7.1-0.3
			c-2.3,0.4-4.8,1.3-7.3,2.6c-4.3,2.3-7.4,5.1-7.4,5.1C319.2,402.5,318.6,402.8,318.1,402.8z M332.3,376.3l-8.6,17.7
			c0.4-0.2,0.8-0.4,1.2-0.6c2.9-1.5,5.7-2.6,8.5-3.1c1.9-0.3,3.7-0.5,5.5-0.3L332.3,376.3z"/>
		<path class="st0" d="M380.7,371.5c0,1.2-0.9,2.1-2.1,2.1h-9.3v27.1c0,1.2-1,2.1-2.1,2.1c-1.2,0-2.1-0.9-2.1-2.1v-27.1h-9.4
			c-1.2,0-2.1-0.9-2.1-2.1c0-1.2,0.9-2.1,2.1-2.1h22.9C379.8,369.3,380.7,370.3,380.7,371.5z"/>
		<path class="st0" d="M393.9,402.8c-1.1,0-2.1-0.9-2.1-2.1v-29.2c0-1.1,1-2.1,2.1-2.1c1.2,0,2.1,1,2.1,2.1v29.2
			C396,401.8,395.1,402.8,393.9,402.8z"/>
		<path class="st0" d="M424.4,403.5c-2.3,0-4.6-0.5-6.8-1.4c-2.1-0.9-4-2.1-5.6-3.7c-1.6-1.6-2.9-3.4-3.7-5.5
			c-0.9-2.1-1.4-4.4-1.4-6.7c0-2.3,0.5-4.6,1.4-6.7c0.9-2,2.2-3.9,3.8-5.5c1.6-1.6,3.5-2.9,5.6-3.7c2.2-0.9,4.5-1.4,6.8-1.4
			c4.6,0,9,1.8,12.2,5.1c1.6,1.6,2.8,3.4,3.6,5.5c0.9,2.1,1.3,4.4,1.3,6.7c0,2.3-0.4,4.6-1.3,6.7c-0.9,2.1-2.1,4-3.7,5.5
			C433.4,401.7,429,403.5,424.4,403.5z M424.5,373.1c-1.8,0-3.5,0.3-5.2,1c-1.6,0.7-3,1.6-4.3,2.8c-1.2,1.2-2.2,2.6-2.9,4.2
			c-0.7,1.6-1.1,3.3-1.1,5c0,1.7,0.3,3.4,1,5c0.7,1.6,1.6,3,2.9,4.2c2.5,2.5,5.8,3.9,9.4,3.9c3.5,0,6.8-1.4,9.3-3.9
			c1.2-1.2,2.1-2.6,2.8-4.2c0.6-1.6,1-3.3,1-5.1c0-3.5-1.3-6.8-3.7-9.2C431.2,374.4,428,373.1,424.5,373.1z"/>
		<path class="st0" d="M478.9,402.9c-0.6,0-1.2-0.3-1.7-0.8l-20.5-24.7v23.3c0,1.2-0.9,2.1-2.1,2.1c-1.2,0-2.1-0.9-2.1-2.1v-29.2
			c0-0.9,0.6-1.7,1.4-2c0.9-0.3,1.8,0,2.3,0.6l20.6,24.7v-23.3c0-1.2,0.9-2.1,2.1-2.1c1.1,0,2.1,0.9,2.1,2.1v29.2
			c0,0.9-0.6,1.7-1.4,2C479.4,402.8,479.1,402.9,478.9,402.9z"/>
	</g>
</g>
<g>
	<path class="st0" d="M325.6,27.1l-13-7.5L299.5,12l-13.2,7.6l-13,7.5l-81.8,47.2v124.6l11.8,6.8l13,7.5l83.1,48l83.1-48l13-7.5
		l11.8-6.8V74.3L325.6,27.1z M391.4,189.7l-7.3,4.2c-5.9-5.3-12.3-10.1-19.1-14.3c-5.2-3.2-10.6-6-16.2-8.3
		c-15.2-6.5-31.8-10-49.3-10c-17.5,0-34.2,3.6-49.3,10c-5.6,2.4-11,5.2-16.2,8.3l14.9,8.6l50.6,29.2l50.6-29.2
		c7.3,3.7,14.2,8.3,20.5,13.5l-71.1,41.1l-71.1-41l-13.5-7.8l-7.3-4.2v-7.2c7.7-2.5,15-5.8,21.9-9.7c5.4-3,10.5-6.4,15.3-10.2
		c26.3-20.3,44.3-50.8,48.3-85.4c0.5-4.7,0.8-9.5,0.8-14.4c0-1.2,0-2.4-0.1-3.7L279,67.6l-49.5,28.6v59.2
		c-6.8,4.6-14.2,8.4-21.9,11.4V83.6l69.9-40.3l13.5-7.8l8.5-4.9l8.6,5c-1.2,5.7-2,11.6-2.4,17.6c-0.1,2.1-0.2,4.1-0.2,6.2
		c-0.1,6.2,0.2,12.2,1,18.2c3.2,24.7,13.6,47.9,30.4,67c5.3,6,11.1,11.5,17.2,16.3c4.9,3.8,10,7.2,15.3,10.3V96.2l-49-28.3
		c-0.3-4.6-0.3-9.2,0-13.8c0.2-3.6,0.6-7.2,1.2-10.8l69.7,40.2V189.7z M332.2,180.9l-32.7,18.9l-32.7-18.9
		c10.3-3.2,21.3-4.9,32.7-4.9S321.8,177.7,332.2,180.9z M244.8,143.2V105l31.7-18.3C271.7,108.6,260.5,128.1,244.8,143.2z
		 M323.2,87.2l30.9,17.9v36.2c-2.1-2.1-4.2-4.2-6.2-6.5C335.8,121,327.4,104.7,323.2,87.2z"/>
</g>
</svg>
